<mxfile host="app.diagrams.net" modified="2021-09-17T05:56:07.735Z" agent="5.0 (X11)" etag="U3sDoP4NnJVSng8SdN__" version="14.9.9" type="github">
  <diagram id="HPMyCTs1JtdewsG8-r8l" name="Page-1">
    <mxGraphModel dx="2051" dy="712" grid="1" gridSize="10" guides="1" tooltips="1" connect="1" arrows="1" fold="1" page="1" pageScale="1" pageWidth="850" pageHeight="1100" math="1" shadow="0">
      <root>
        <mxCell id="0" />
        <mxCell id="1" parent="0" />
        <mxCell id="0roCsXZs07hfI-0RXTEd-21" value="" style="endArrow=classic;html=1;" parent="1" edge="1">
          <mxGeometry relative="1" as="geometry">
            <mxPoint x="-10" y="420" as="sourcePoint" />
            <mxPoint x="160" y="420" as="targetPoint" />
          </mxGeometry>
        </mxCell>
        <mxCell id="0roCsXZs07hfI-0RXTEd-46" value="" style="endArrow=classic;html=1;" parent="1" edge="1">
          <mxGeometry relative="1" as="geometry">
            <mxPoint x="-10" y="570" as="sourcePoint" />
            <mxPoint x="150" y="570" as="targetPoint" />
          </mxGeometry>
        </mxCell>
        <mxCell id="0roCsXZs07hfI-0RXTEd-48" value="" style="endArrow=classic;html=1;" parent="1" edge="1">
          <mxGeometry relative="1" as="geometry">
            <mxPoint x="-10" y="450" as="sourcePoint" />
            <mxPoint x="160" y="450" as="targetPoint" />
          </mxGeometry>
        </mxCell>
        <mxCell id="0roCsXZs07hfI-0RXTEd-66" value="" style="edgeStyle=segmentEdgeStyle;endArrow=classic;html=1;entryX=0;entryY=0.75;entryDx=0;entryDy=0;" parent="1" edge="1">
          <mxGeometry width="50" height="50" relative="1" as="geometry">
            <mxPoint x="110" y="450" as="sourcePoint" />
            <mxPoint x="460" y="450" as="targetPoint" />
            <Array as="points">
              <mxPoint x="110" y="490" />
              <mxPoint x="410" y="490" />
              <mxPoint x="410" y="450" />
            </Array>
          </mxGeometry>
        </mxCell>
        <mxCell id="0roCsXZs07hfI-0RXTEd-68" value="" style="edgeStyle=segmentEdgeStyle;endArrow=classic;html=1;exitX=1;exitY=0.75;exitDx=0;exitDy=0;" parent="1" edge="1">
          <mxGeometry width="50" height="50" relative="1" as="geometry">
            <mxPoint x="580" y="540" as="sourcePoint" />
            <mxPoint x="460" y="545" as="targetPoint" />
            <Array as="points">
              <mxPoint x="620" y="540" />
              <mxPoint x="620" y="580" />
              <mxPoint x="440" y="580" />
              <mxPoint x="440" y="545" />
            </Array>
          </mxGeometry>
        </mxCell>
        <mxCell id="0roCsXZs07hfI-0RXTEd-69" value="" style="edgeStyle=segmentEdgeStyle;endArrow=classic;html=1;entryX=0;entryY=0.667;entryDx=0;entryDy=0;entryPerimeter=0;exitX=1;exitY=0.25;exitDx=0;exitDy=0;" parent="1" edge="1">
          <mxGeometry width="50" height="50" relative="1" as="geometry">
            <mxPoint x="580" y="505" as="sourcePoint" />
            <mxPoint x="460" y="530.02" as="targetPoint" />
            <Array as="points">
              <mxPoint x="580" y="510" />
              <mxPoint x="640" y="510" />
              <mxPoint x="640" y="590" />
              <mxPoint x="410" y="590" />
              <mxPoint x="410" y="530" />
            </Array>
          </mxGeometry>
        </mxCell>
        <mxCell id="0roCsXZs07hfI-0RXTEd-71" value="" style="edgeStyle=segmentEdgeStyle;endArrow=classic;html=1;" parent="1" edge="1">
          <mxGeometry width="50" height="50" relative="1" as="geometry">
            <mxPoint x="360" y="380" as="sourcePoint" />
            <mxPoint x="205" y="380" as="targetPoint" />
            <Array as="points">
              <mxPoint x="205" y="380" />
            </Array>
          </mxGeometry>
        </mxCell>
        <mxCell id="0roCsXZs07hfI-0RXTEd-73" value="" style="edgeStyle=segmentEdgeStyle;endArrow=classic;html=1;exitX=1;exitY=0.5;exitDx=0;exitDy=0;entryX=1;entryY=0.5;entryDx=0;entryDy=0;" parent="1" source="KR0jnZ5FBIjMVYTQxTM6-4" edge="1" target="KR0jnZ5FBIjMVYTQxTM6-1">
          <mxGeometry width="50" height="50" relative="1" as="geometry">
            <mxPoint x="585" y="420" as="sourcePoint" />
            <mxPoint x="585" y="320" as="targetPoint" />
            <Array as="points">
              <mxPoint x="640" y="430" />
              <mxPoint x="640" y="320" />
            </Array>
          </mxGeometry>
        </mxCell>
        <mxCell id="0roCsXZs07hfI-0RXTEd-74" value="" style="edgeStyle=segmentEdgeStyle;endArrow=classic;html=1;exitX=-0.017;exitY=1;exitDx=0;exitDy=0;exitPerimeter=0;entryX=0.5;entryY=1;entryDx=0;entryDy=0;" parent="1" edge="1" target="KR0jnZ5FBIjMVYTQxTM6-1" source="0roCsXZs07hfI-0RXTEd-87">
          <mxGeometry width="50" height="50" relative="1" as="geometry">
            <mxPoint x="330" y="430" as="sourcePoint" />
            <mxPoint x="330" y="370" as="targetPoint" />
            <Array as="points">
              <mxPoint x="360" y="430" />
            </Array>
          </mxGeometry>
        </mxCell>
        <mxCell id="0roCsXZs07hfI-0RXTEd-75" value="" style="edgeStyle=segmentEdgeStyle;endArrow=classic;html=1;" parent="1" edge="1">
          <mxGeometry width="50" height="50" relative="1" as="geometry">
            <mxPoint x="70" y="420" as="sourcePoint" />
            <mxPoint x="150" y="550" as="targetPoint" />
            <Array as="points">
              <mxPoint x="70" y="550" />
              <mxPoint x="140" y="550" />
            </Array>
          </mxGeometry>
        </mxCell>
        <mxCell id="0roCsXZs07hfI-0RXTEd-76" value="" style="edgeStyle=segmentEdgeStyle;endArrow=classic;html=1;entryX=0;entryY=0.5;entryDx=0;entryDy=0;" parent="1" edge="1">
          <mxGeometry width="50" height="50" relative="1" as="geometry">
            <mxPoint x="280" y="560" as="sourcePoint" />
            <mxPoint x="460" y="520" as="targetPoint" />
            <Array as="points">
              <mxPoint x="300" y="560" />
              <mxPoint x="300" y="520" />
            </Array>
          </mxGeometry>
        </mxCell>
        <mxCell id="0roCsXZs07hfI-0RXTEd-79" value="" style="edgeStyle=segmentEdgeStyle;endArrow=classic;html=1;" parent="1" edge="1">
          <mxGeometry width="50" height="50" relative="1" as="geometry">
            <mxPoint x="193" y="560" as="sourcePoint" />
            <mxPoint x="460" y="410" as="targetPoint" />
            <Array as="points">
              <mxPoint x="193" y="560" />
              <mxPoint x="300" y="560" />
              <mxPoint x="300" y="460" />
              <mxPoint x="390" y="460" />
              <mxPoint x="390" y="410" />
            </Array>
          </mxGeometry>
        </mxCell>
        <mxCell id="0roCsXZs07hfI-0RXTEd-80" value="" style="edgeStyle=segmentEdgeStyle;endArrow=classic;html=1;entryX=0;entryY=0.25;entryDx=0;entryDy=0;" parent="1" edge="1">
          <mxGeometry width="50" height="50" relative="1" as="geometry">
            <mxPoint x="370" y="490" as="sourcePoint" />
            <mxPoint x="460" y="505" as="targetPoint" />
            <Array as="points">
              <mxPoint x="410" y="490" />
              <mxPoint x="410" y="505" />
            </Array>
          </mxGeometry>
        </mxCell>
        <mxCell id="0roCsXZs07hfI-0RXTEd-82" value="$$\mathcal{C}&#39;$$" style="text;html=1;align=center;verticalAlign=middle;resizable=0;points=[];autosize=1;strokeColor=none;fillColor=none;" parent="1" vertex="1">
          <mxGeometry x="80" y="300" width="110" height="20" as="geometry" />
        </mxCell>
        <mxCell id="0roCsXZs07hfI-0RXTEd-83" value="$$\kappa$$" style="text;html=1;align=center;verticalAlign=middle;resizable=0;points=[];autosize=1;strokeColor=none;fillColor=none;" parent="1" vertex="1">
          <mxGeometry x="590" y="410" width="80" height="20" as="geometry" />
        </mxCell>
        <mxCell id="0roCsXZs07hfI-0RXTEd-84" value="$$\mathcal{C}$$" style="text;html=1;align=center;verticalAlign=middle;resizable=0;points=[];autosize=1;strokeColor=none;fillColor=none;" parent="1" vertex="1">
          <mxGeometry x="-20" y="400" width="100" height="20" as="geometry" />
        </mxCell>
        <mxCell id="0roCsXZs07hfI-0RXTEd-85" value="$$\phi$$" style="text;html=1;align=center;verticalAlign=middle;resizable=0;points=[];autosize=1;strokeColor=none;fillColor=none;" parent="1" vertex="1">
          <mxGeometry y="450" width="60" height="20" as="geometry" />
        </mxCell>
        <mxCell id="0roCsXZs07hfI-0RXTEd-86" value="$$\mathcal{P}$$" style="text;html=1;align=center;verticalAlign=middle;resizable=0;points=[];autosize=1;strokeColor=none;fillColor=none;" parent="1" vertex="1">
          <mxGeometry x="-20" y="550" width="100" height="20" as="geometry" />
        </mxCell>
        <mxCell id="0roCsXZs07hfI-0RXTEd-87" value="$$\rho$$" style="text;html=1;align=center;verticalAlign=middle;resizable=0;points=[];autosize=1;strokeColor=none;fillColor=none;" parent="1" vertex="1">
          <mxGeometry x="280" y="410" width="60" height="20" as="geometry" />
        </mxCell>
        <mxCell id="0roCsXZs07hfI-0RXTEd-89" value="$$\mathcal{M}$$" style="text;html=1;align=center;verticalAlign=middle;resizable=0;points=[];autosize=1;strokeColor=none;fillColor=none;" parent="1" vertex="1">
          <mxGeometry x="190" y="540" width="110" height="20" as="geometry" />
        </mxCell>
        <mxCell id="0roCsXZs07hfI-0RXTEd-90" value="" style="shape=ext;double=1;rounded=0;whiteSpace=wrap;html=1;fillColor=none;" parent="1" vertex="1">
          <mxGeometry x="50" y="260" width="620" height="360" as="geometry" />
        </mxCell>
        <mxCell id="0roCsXZs07hfI-0RXTEd-92" value="$$\rho&amp;gt;0$$" style="text;html=1;align=center;verticalAlign=middle;resizable=0;points=[];autosize=1;strokeColor=none;fillColor=none;" parent="1" vertex="1">
          <mxGeometry x="225" y="350" width="80" height="20" as="geometry" />
        </mxCell>
        <mxCell id="0roCsXZs07hfI-0RXTEd-93" value="&lt;b&gt;&lt;font face=&quot;Comic Sans MS&quot;&gt;STOP&lt;/font&gt;&lt;/b&gt;" style="shape=parallelogram;perimeter=parallelogramPerimeter;whiteSpace=wrap;html=1;fixedSize=1;fillColor=#9AC7BF;" parent="1" vertex="1">
          <mxGeometry x="160" y="360" width="60" height="30" as="geometry" />
        </mxCell>
        <mxCell id="0roCsXZs07hfI-0RXTEd-96" value="$$\phi_{mxl}$$" style="text;html=1;align=center;verticalAlign=middle;resizable=0;points=[];autosize=1;strokeColor=none;fillColor=none;" parent="1" vertex="1">
          <mxGeometry x="585" y="490" width="90" height="20" as="geometry" />
        </mxCell>
        <mxCell id="0roCsXZs07hfI-0RXTEd-97" value="max_count" style="text;html=1;align=center;verticalAlign=middle;resizable=0;points=[];autosize=1;strokeColor=none;fillColor=none;" parent="1" vertex="1">
          <mxGeometry x="550" y="550" width="70" height="20" as="geometry" />
        </mxCell>
        <mxCell id="KR0jnZ5FBIjMVYTQxTM6-1" value="&lt;font face=&quot;Comic Sans MS&quot;&gt;&lt;b&gt;Parameter Tuner&lt;/b&gt;&lt;/font&gt;" style="rounded=0;whiteSpace=wrap;html=1;fillColor=#97D077;" vertex="1" parent="1">
          <mxGeometry x="300" y="290" width="120" height="60" as="geometry" />
        </mxCell>
        <mxCell id="KR0jnZ5FBIjMVYTQxTM6-2" value="&lt;font face=&quot;Comic Sans MS&quot;&gt;&lt;b&gt;Falsifier&lt;/b&gt;&lt;/font&gt;" style="rounded=0;whiteSpace=wrap;html=1;fillColor=#97D077;" vertex="1" parent="1">
          <mxGeometry x="160" y="400" width="120" height="60" as="geometry" />
        </mxCell>
        <mxCell id="KR0jnZ5FBIjMVYTQxTM6-3" value="&lt;b&gt;&lt;font face=&quot;Comic Sans MS&quot;&gt;maximal sat spec&lt;/font&gt;&lt;/b&gt;" style="rounded=0;whiteSpace=wrap;html=1;fillColor=#97D077;" vertex="1" parent="1">
          <mxGeometry x="460" y="490" width="120" height="60" as="geometry" />
        </mxCell>
        <mxCell id="KR0jnZ5FBIjMVYTQxTM6-4" value="&lt;b&gt;&lt;font face=&quot;Comic Sans MS&quot;&gt;Select Parameter&lt;/font&gt;&lt;/b&gt;" style="rounded=0;whiteSpace=wrap;html=1;fillColor=#97D077;" vertex="1" parent="1">
          <mxGeometry x="460" y="400" width="120" height="60" as="geometry" />
        </mxCell>
        <mxCell id="KR0jnZ5FBIjMVYTQxTM6-8" value="" style="edgeStyle=segmentEdgeStyle;endArrow=classic;html=1;exitX=0;exitY=0.5;exitDx=0;exitDy=0;" edge="1" parent="1" source="KR0jnZ5FBIjMVYTQxTM6-1">
          <mxGeometry width="50" height="50" relative="1" as="geometry">
            <mxPoint x="215" y="280" as="sourcePoint" />
            <mxPoint x="90" y="410" as="targetPoint" />
          </mxGeometry>
        </mxCell>
        <mxCell id="KR0jnZ5FBIjMVYTQxTM6-9" value="" style="shape=sumEllipse;perimeter=ellipsePerimeter;whiteSpace=wrap;html=1;backgroundOutline=1;fillColor=#FFCCE6;" vertex="1" parent="1">
          <mxGeometry x="150" y="540" width="40" height="40" as="geometry" />
        </mxCell>
      </root>
    </mxGraphModel>
  </diagram>
</mxfile>
